<svg width="24" height="24" viewBox="0 0 24 24" fill="none" xmlns="http://www.w3.org/2000/svg">
<path d="M2.83398 19.9167V9.91669C5.16732 10.25 7.13954 9.22224 7.83398 8.66669C8.38954 9.08335 10.0007 10.3334 12.0007 10.3334C14.0007 10.3334 15.6118 9.08335 16.1673 8.66669C17.834 10 20.1951 10.0556 21.1673 9.91669V19.9167C21.1673 21.5834 19.7784 22 19.084 22H5.33398C3.33398 22 2.83398 20.6111 2.83398 19.9167Z" fill="#157892" stroke="#CDCDCD" stroke-width="1.5"/>
<path d="M3.66667 2.53131L2 9.19798C2 10.0313 2.41667 10.0313 4.08333 10.0313C5.75 10.0313 7.41667 9.61464 7.83333 8.36464C7.97222 7.25353 8.58333 5.28131 8.25 4.61464C7.41667 2.94798 6.58333 2.53131 5.33333 2.11465C4.33333 1.78131 3.80556 2.25354 3.66667 2.53131Z" fill="#157892" stroke="#CDCDCD" stroke-width="1.5"/>
<path d="M20.0164 2.5513L21.6836 9.46867C21.6836 10.3333 21.2668 10.3333 19.5997 10.3333C17.9325 10.3333 16.2654 9.901 15.8486 8.60399C15.7097 7.4511 15.0984 5.40471 15.4318 4.71297C16.2654 2.98363 17.0989 2.5513 18.3493 2.11896C19.3496 1.77309 19.8775 2.26307 20.0164 2.5513Z" fill="#157892" stroke="#CDCDCD" stroke-width="1.5"/>
<path d="M8.66668 4.08333C9.00001 2.41667 10.7499 2 11.9999 2C14.0832 2 14.4999 2.83333 14.9166 4.08333C15.3332 5.33333 15.7499 7.83333 15.7499 8.66667C15.7499 9.5 14.0832 10.3333 11.9999 10.3333C9.91656 10.3333 8.66671 9.5 8.25001 9.08333C7.59118 8.42455 8.25001 6.16667 8.66668 4.08333Z" fill="#157892" stroke="#CDCDCD" stroke-width="1.5"/>
<path d="M8.66602 15.7501C8.66602 13.2501 9.91602 13.2501 11.9993 13.2501L11.9994 13.2501C13.666 13.2501 14.916 13.2501 14.916 15.75V22H8.66602V15.7501Z" fill="#157892" stroke="#CDCDCD" stroke-width="1.5"/>
</svg>
