<svg width="24" height="24" viewBox="0 0 24 24" fill="none" xmlns="http://www.w3.org/2000/svg">
<path d="M14.2598 21.3668V15.2446C14.2598 14.8948 14.5347 14.6113 14.8739 14.6113H20.8106C21.1498 14.6113 21.4247 14.8948 21.4247 15.2446V21.3668C21.4247 21.7166 21.1498 22.0001 20.8106 22.0001H14.8739C14.5347 22.0001 14.2598 21.7166 14.2598 21.3668Z" stroke="#CDCDCD" stroke-width="1.5"/>
<path d="M3 21.3668V15.2446C3 14.8948 3.27496 14.6113 3.61414 14.6113H9.55079C9.88997 14.6113 10.1649 14.8948 10.1649 15.2446V21.3668C10.1649 21.7166 9.88997 22.0001 9.55079 22.0001H3.61414C3.27496 22.0001 3 21.7166 3 21.3668Z" stroke="#CDCDCD" stroke-width="1.5"/>
<path d="M14.2598 9.7555V3.63333C14.2598 3.28355 14.5347 3 14.8739 3H20.8106C21.1498 3 21.4247 3.28355 21.4247 3.63333V9.7555C21.4247 10.1053 21.1498 10.3888 20.8106 10.3888H14.8739C14.5347 10.3888 14.2598 10.1053 14.2598 9.7555Z" stroke="#CDCDCD" stroke-width="1.5"/>
<path d="M3 9.7555V3.63333C3 3.28355 3.27496 3 3.61414 3H9.55079C9.88997 3 10.1649 3.28355 10.1649 3.63333V9.7555C10.1649 10.1053 9.88997 10.3888 9.55079 10.3888H3.61414C3.27496 10.3888 3 10.1053 3 9.7555Z" stroke="#CDCDCD" stroke-width="1.5"/>
</svg>
