<svg width="24" height="24" viewBox="0 0 24 24" fill="none" xmlns="http://www.w3.org/2000/svg">
<path d="M21.0024 12.2376C20.9383 12.2382 20.8765 12.2141 20.8297 12.1704L20.5428 11.8836L19.2625 10.6032V12.4139V19C19.2625 19.5967 19.0254 20.169 18.6035 20.591C18.1815 21.0129 17.6092 21.25 17.0124 21.25H7.01234C6.4156 21.25 5.84329 21.0129 5.42133 20.591C4.99937 20.169 4.76231 19.5967 4.76231 19V12.4139V10.6032L3.48198 11.8836L3.18898 12.1766L3.1889 12.1765L3.17984 12.1859C3.15677 12.2097 3.12919 12.2288 3.09869 12.2419C3.06819 12.255 3.03538 12.2619 3.00218 12.2622C2.96899 12.2625 2.93607 12.2561 2.90534 12.2436C2.87462 12.231 2.8467 12.2124 2.82323 12.189C2.79975 12.1655 2.78119 12.1376 2.76862 12.1069C2.75605 12.0761 2.74972 12.0432 2.75001 12.01C2.7503 11.9768 2.75719 11.944 2.7703 11.9135C2.7834 11.883 2.80245 11.8554 2.82632 11.8324L2.8264 11.8324L2.83562 11.8232L4.83564 9.82319L11.8356 2.8232C11.8825 2.77633 11.9461 2.75 12.0124 2.75C12.0787 2.75 12.1422 2.7763 12.1891 2.82312C12.1891 2.82315 12.1891 2.82317 12.1892 2.8232L21.183 11.8171C21.2267 11.8639 21.2508 11.9257 21.2502 11.9898C21.2496 12.0553 21.2233 12.118 21.177 12.1644C21.1306 12.2107 21.0679 12.237 21.0024 12.2376Z" stroke="#CDCDCD" stroke-width="1.5"/>
</svg>
