<svg width="24" height="24" viewBox="0 0 24 24" fill="none" xmlns="http://www.w3.org/2000/svg">
<path d="M15.1716 9.99662C14.3452 10.7965 13.2193 11.25 12.0404 11.25C10.8614 11.25 9.73551 10.7965 8.90911 9.99662C8.08353 9.19756 7.62444 8.11912 7.62444 7C7.62444 5.88088 8.08353 4.80244 8.90911 4.00338C9.73551 3.20352 10.8614 2.75 12.0404 2.75C13.2193 2.75 14.3452 3.20352 15.1716 4.00338C15.9972 4.80244 16.4563 5.88088 16.4563 7C16.4563 8.11912 15.9972 9.19756 15.1716 9.99662ZM3.75 20.8398C3.75 17.4293 6.61157 14.625 10.196 14.625H13.8848C17.4691 14.625 20.3307 17.4293 20.3307 20.8398C20.3307 21.0434 20.153 21.25 19.8821 21.25H4.19865C3.92772 21.25 3.75 21.0434 3.75 20.8398Z" fill="white" stroke="white" stroke-width="1.5"/>
</svg>
