<svg width="24" height="24" viewBox="0 0 24 24" fill="none" xmlns="http://www.w3.org/2000/svg">
<path fill-rule="evenodd" clip-rule="evenodd" d="M1 1.61765C1 1.27653 1.27653 1 1.61765 1C3.55882 1 4.59714 2.10269 5.01071 2.9765H21.3827C21.5658 2.9765 21.7395 3.05779 21.8569 3.1984C21.9742 3.33901 22.0231 3.52445 21.9904 3.70464L20.0139 14.5754C19.9673 14.8316 19.7668 15.0267 19.5182 15.0724C19.4813 15.0793 19.4432 15.0829 19.4043 15.0829H4.80853C4.00616 15.0829 3.48053 15.26 3.17051 15.4944C2.88274 15.7121 2.72749 16.0173 2.72749 16.4417C2.72749 16.8662 2.88274 17.1714 3.17051 17.3891C3.48053 17.6235 4.00616 17.8006 4.80853 17.8006H8.97724C8.99487 17.8002 9.01255 17.7999 9.03028 17.7999C9.04801 17.7999 9.06568 17.8002 9.08331 17.8006H18.8598C18.8774 17.8002 18.8951 17.7999 18.9128 17.7999C20.0726 17.7999 21.0128 18.7402 21.0128 19.9C21.0128 21.0598 20.0726 22 18.9128 22C17.753 22 16.8128 21.0598 16.8128 19.9C16.8128 19.592 16.8791 19.2994 16.9982 19.0359H10.9449C11.064 19.2994 11.1303 19.592 11.1303 19.9C11.1303 21.0598 10.1901 22 9.03028 22C7.87045 22 6.93025 21.0598 6.93025 19.9C6.93025 19.592 6.99656 19.2994 7.11569 19.0359H4.80853C3.84755 19.0359 3.02383 18.827 2.42535 18.3743C1.80461 17.9048 1.49219 17.2218 1.49219 16.4417C1.49219 15.6617 1.80461 14.9787 2.42535 14.5092C3.02383 14.0565 3.84755 13.8476 4.80853 13.8476H5.81889L3.97877 3.72694C3.85759 3.27777 3.23662 2.2353 1.61765 2.2353C1.27653 2.2353 1 1.95877 1 1.61765ZM5.32248 4.2118L7.07439 13.8473H18.8907L20.6426 4.2118H5.32248ZM8.99627 19.0359C8.53446 19.0538 8.16555 19.4338 8.16555 19.9C8.16555 20.3775 8.55271 20.7647 9.03028 20.7647C9.50783 20.7647 9.89501 20.3775 9.89501 19.9C9.89501 19.4338 9.52607 19.0538 9.06429 19.0359H8.99627ZM18.8788 19.0359C18.417 19.0538 18.0481 19.4338 18.0481 19.9C18.0481 20.3775 18.4353 20.7647 18.9128 20.7647C19.3904 20.7647 19.7775 20.3775 19.7775 19.9C19.7775 19.4292 19.4013 19.0463 18.9332 19.0355C18.9255 19.0358 18.9178 19.0359 18.9101 19.0359H18.8788Z" fill="white"/>
</svg>
