<svg width="24" height="24" viewBox="0 0 24 24" fill="none" xmlns="http://www.w3.org/2000/svg">
<path fill-rule="evenodd" clip-rule="evenodd" d="M12.7194 2.29279C12.5319 2.10532 12.2776 2 12.0124 2C11.7472 2 11.4929 2.10532 11.3054 2.29279L4.30531 9.29286L2.30529 11.2929C2.20978 11.3851 2.1336 11.4955 2.08119 11.6175C2.02878 11.7395 2.00119 11.8707 2.00004 12.0035C1.99888 12.1363 2.02419 12.268 2.07447 12.3909C2.12475 12.5137 2.199 12.6254 2.2929 12.7193C2.38679 12.8132 2.49844 12.8874 2.62134 12.9377C2.74424 12.988 2.87592 13.0133 3.0087 13.0122C3.14148 13.011 3.2727 12.9834 3.39471 12.931C3.51671 12.8786 3.62706 12.8024 3.71931 12.7069L4.01231 12.4139V19C4.01231 19.7956 4.32838 20.5587 4.891 21.1213C5.45361 21.6839 6.21668 22 7.01234 22H17.0124C17.8081 22 18.5712 21.6839 19.1338 21.1213C19.6964 20.5587 20.0125 19.7956 20.0125 19V12.4139L20.3055 12.7069C20.4941 12.8891 20.7467 12.9899 21.0089 12.9876C21.2711 12.9853 21.5219 12.8801 21.7073 12.6947C21.8927 12.5093 21.9979 12.2585 22.0002 11.9963C22.0025 11.7341 21.9017 11.4815 21.7195 11.2929L12.7194 2.29279Z" fill="white"/>
</svg>
