<svg width="24" height="24" viewBox="0 0 24 24" fill="none" xmlns="http://www.w3.org/2000/svg">
<path d="M14.2588 21.3668V15.2447C14.2588 14.8948 14.5337 14.6113 14.8729 14.6113H20.8096C21.1488 14.6113 21.4237 14.8948 21.4237 15.2447V21.3668C21.4237 21.7166 21.1488 22.0002 20.8096 22.0002H14.8729C14.5337 22.0002 14.2588 21.7166 14.2588 21.3668Z" fill="white" stroke="white" stroke-width="1.5"/>
<path d="M3 21.3668V15.2447C3 14.8948 3.27496 14.6113 3.61414 14.6113H9.55079C9.88997 14.6113 10.1649 14.8948 10.1649 15.2447V21.3668C10.1649 21.7166 9.88997 22.0002 9.55079 22.0002H3.61414C3.27496 22.0002 3 21.7166 3 21.3668Z" fill="white" stroke="white" stroke-width="1.5"/>
<path d="M14.2588 9.7555V3.63333C14.2588 3.28355 14.5337 3 14.8729 3H20.8096C21.1488 3 21.4237 3.28355 21.4237 3.63333V9.7555C21.4237 10.1053 21.1488 10.3888 20.8096 10.3888H14.8729C14.5337 10.3888 14.2588 10.1053 14.2588 9.7555Z" fill="white" stroke="white" stroke-width="1.5"/>
<path d="M3 9.7555V3.63333C3 3.28355 3.27496 3 3.61414 3H9.55079C9.88997 3 10.1649 3.28355 10.1649 3.63333V9.7555C10.1649 10.1053 9.88997 10.3888 9.55079 10.3888H3.61414C3.27496 10.3888 3 10.1053 3 9.7555Z" fill="white" stroke="white" stroke-width="1.5"/>
</svg>
